{
  "title": "Starred Up 2014 WEBRIP XVID AC3 ACAB",
  "uid": 10589356,
  "size": 1460109054,
  "categoryP": "video",
  "categoryS": "movies",
  "magnet": "?xt=urn:btih:6463ee1bd7679d4319df0462a1033ebb74ce2efd&amp;dn=Starred+Up+2014+WEBRIP+XVID+AC3+ACAB&amp;tr=udp%3A%2F%2Ftracker.openbittorrent.com%3A80&amp;tr=udp%3A%2F%2Fopen.demonii.com%3A1337&amp;tr=udp%3A%2F%2Ftracker.coppersurfer.tk%3A6969&amp;tr=udp%3A%2F%2Fexodus.desync.com%3A6969",
  "seeders": 180,
  "leechers": 14,
  "uploader": "xxxlavalxxx",
  "files": -1,
  "time": 1405782736,
  "description": "[IMG]http://i.imgur.com/pDXY4qQ.jpg[/IMG]\n\n &lt;a href=&quot;\nhttp://www.imdb.com/title/tt2567712/&quot; rel=&quot;nofollow&quot; target=&quot;_NEW&quot;&gt;\nhttp://www.imdb.com/title/tt2567712/&lt;/a&gt;\n\n\nA troubled and explosively violent teenager is transferred to adult prison where he finally meets his match - a man who also happens to be his father.\n\nDirector: David Mackenzie\nWriter: Jonathan Asser\nStars: Jack O'Connell, Rupert Friend, Ben Mendelsohn\nGenres: Drama\nCountry: UK\nLanguage: English\n\n\nReason For READNFO:\nSource Had A Bit Of Stutter Every Now And Again Nothing Major At All. Adjusted Colour Levels Etc Etc Anyways Enjoy....\n\nFormat                                   : AVI\nFormat/Info                              : Audio Video Interleave\nFile size                                : 1.33 GiB\nDuration                                 : 1h 45mn\nOverall bit rate                         : 1 795 Kbps\n\nVideo\nID                                       : 0\nFormat                                   : MPEG-4 Visual\nFormat profile                           : Advanced Simple@L5\nFormat settings, BVOP                    : 2\nFormat settings, QPel                    : No\nFormat settings, GMC                     : No warppoints\nFormat settings, Matrix                  : Default (H.263)\nMuxing mode                              : Packed bitstream\nCodec ID                                 : XVID\nCodec ID/Hint                            : XviD\nDuration                                 : 1h 45mn\nBit rate                                 : 1 532 Kbps\nWidth                                    : 720 pixels\nHeight                                   : 304 pixels\nDisplay aspect ratio                     : 2.35:1\nFrame rate                               : 23.976 fps\nColor space                              : YUV\nChroma subsampling                       : 4:2:0\nBit depth                                : 8 bits\nScan type                                : Progressive\nCompression mode                         : Lossy\nBits/(Pixel*Frame)                       : 0.292\nStream size                              : 1.13 GiB (85%)\nWriting library                          : XviD 1.2.1 (UTC 2008-12-04)\n\nAudio\nID                                       : 1\nFormat                                   : AC-3\nFormat/Info                              : Audio Coding 3\nMode extension                           : CM (complete main)\nFormat settings, Endianness              : Big\nCodec ID                                 : 2000\nDuration                                 : 1h 45mn\nBit rate mode                            : Constant\nBit rate                                 : 256 Kbps\nChannel(s)                               : 2 channels\nChannel positions                        : Front: L R\nSampling rate                            : 48.0 KHz\nBit depth                                : 16 bits\nCompression mode                         : Lossy\nStream size                              : 194 MiB (14%)\nAlignment                                : Aligned on interleaves\nInterleave, duration                     : 64 ms (1.53 video frames)\nInterleave, preload duration             : 192 ms\nTitle                                    : English\n\nSource---Own 720p\n\n\nscreens\n &lt;a href=&quot;\nhttp://i.imgur.com/e79PsY2.png&quot; rel=&quot;nofollow&quot; target=&quot;_NEW&quot;&gt;\nhttp://i.imgur.com/e79PsY2.png&lt;/a&gt; &lt;a href=&quot;\nhttp://i.imgur.com/GpZRrX0.png&quot; rel=&quot;nofollow&quot; target=&quot;_NEW&quot;&gt;\nhttp://i.imgur.com/GpZRrX0.png&lt;/a&gt; &lt;a href=&quot;\nhttp://i.imgur.com/HYvZIgC.png&quot; rel=&quot;nofollow&quot; target=&quot;_NEW&quot;&gt;\nhttp://i.imgur.com/HYvZIgC.png&lt;/a&gt; &lt;a href=&quot;\nhttp://i.imgur.com/Iwjzjvv.png&quot; rel=&quot;nofollow&quot; target=&quot;_NEW&quot;&gt;\nhttp://i.imgur.com/Iwjzjvv.png&lt;/a&gt;",
  "parsed": {
    "xt": "urn:btih:6463ee1bd7679d4319df0462a1033ebb74ce2efd",
    "dn": "Starred Up 2014 WEBRIP XVID AC3 ACAB",
    "tr": [
      "udp://exodus.desync.com:6969",
      "udp://open.demonii.com:1337",
      "udp://tracker.coppersurfer.tk:6969",
      "udp://tracker.openbittorrent.com:80"
    ],
    "infoHash": "6463ee1bd7679d4319df0462a1033ebb74ce2efd",
    "infoHashBuffer": {
      "type": "Buffer",
      "data": [
        100,
        99,
        238,
        27,
        215,
        103,
        157,
        67,
        25,
        223,
        4,
        98,
        161,
        3,
        62,
        187,
        116,
        206,
        46,
        253
      ]
    },
    "name": "Starred Up 2014 WEBRIP XVID AC3 ACAB",
    "announce": [
      "udp://exodus.desync.com:6969",
      "udp://open.demonii.com:1337",
      "udp://tracker.coppersurfer.tk:6969",
      "udp://tracker.openbittorrent.com:80"
    ],
    "urlList": []
  },
  "previous": 26,
  "peers": 7,
  "last_updated": "2016-12-27T02:14:23.721Z"
}